<?xml version="1.0" encoding="UTF-8"?>
<!-- Created with Grafika (https://www.grafika.cc/) -->
<svg xmlns="http://www.w3.org/2000/svg" xmlns:svg="http://www.w3.org/2000/svg" xmlns:xlink="http://www.w3.org/1999/xlink" width="1024" height="1024" viewBox="0 0 1080 1080" preserveAspectRatio="xMidYMid meet">
	<g transform="matrix(1, 0, 0, 1, 540, 540)">
		<g transform="matrix(1, 0, 0, 1, -62.723968505859375, 62.607177734375)">
			<ellipse cx="62.72" cy="-62.78" rx="476.58" ry="476.58" style="fill:#1A46B6;" />
			<path transform="matrix(2.140430212020874, 0, 0, 2.140430212020874, 64.05636596679688, 32.0832633972168)" d="M-35.05,-38.52 L-33.94,175.86 C-19.05,178.34 -7.6,178.92 6.12,178.24 L5.27,-38.52 L56.82,-38.25 L76.75,-72.24 L5.27,-72.51 L5.27,-109.09 Q5.27,-127.26 13.25,-134.41 Q21.22,-141.68 38.92,-141.68 L60.02,-141.68 L60.02,-176.26 L32.71,-176.26 Q10.67,-176.26 -4.57,-169.23 Q-19.7,-162.31 -27.43,-147.66 Q-35.05,-133 -35.05,-110.03 L-35.05,-72.51 L-71.98,-72.51 L-71.98,-38.52 L-35.05,-38.52 Z" style="fill:#FFFFFF;" />
		</g>
	</g>
</svg>