<?xml version="1.0" encoding="UTF-8"?>
<!-- Created with Grafika (https://www.grafika.cc/) -->
<svg xmlns="http://www.w3.org/2000/svg" xmlns:svg="http://www.w3.org/2000/svg" xmlns:xlink="http://www.w3.org/1999/xlink" width="1024" height="1024" viewBox="0 0 1080 1080" preserveAspectRatio="xMidYMid meet">
	<g transform="matrix(1, 0, 0, 1, 540, 540)">
		<path d="M-370.46,223.83 L-428.23,430.76 L-226.61,372.7 C316.64,619.79 615.71,0 314.97,-307.01 C0,-622.66 -602.29,-311.64 -370.46,223.83 Z" fill-rule="evenodd" style="fill:#FFFFFF00;stroke:#1CC601;stroke-linecap:round;stroke-linejoin:round;stroke-width:54;" />
		<path d="M-83.91,-53.25 C-51.66,22.13 0.2,76.6 74.32,106.22 C92.39,119.14 115.43,66.67 138.43,62.85 C167.08,56.56 176.42,84.92 214.07,120.15 Q261.59,155.68 242.09,188.38 C115.06,364.9 -236.25,40.38 -217.33,-138.05 Q-167.29,-272.01 -97.24,-192.19 C-55.28,-152.11 -39.3,-139.09 -37.87,-121.93 C-33.28,-94.23 -85.05,-76.53 -83.91,-53.25 Z" fill-rule="evenodd" style="fill:#FFFFFF;stroke:#FFFFFF00;stroke-linecap:round;stroke-linejoin:round;stroke-width:54;" />
	</g>
</svg>