<svg xmlns="http://www.w3.org/2000/svg" xmlns:xlink="http://www.w3.org/1999/xlink" viewBox="0,0,255.99263,255.99263" width="100px" height="100px" fill-rule="nonzero"><g fill-opacity="0" fill="#dddddd" fill-rule="nonzero" stroke="none" stroke-width="1" stroke-linecap="butt" stroke-linejoin="miter" stroke-miterlimit="10" stroke-dasharray="" stroke-dashoffset="0" font-family="none" font-weight="none" font-size="none" text-anchor="none" style="mix-blend-mode: normal"><path d="M0,255.99263v-255.99263h255.99263v255.99263z" id="bgRectangle"></path></g><g fill="none" fill-rule="nonzero" stroke="none" stroke-width="1" stroke-linecap="butt" stroke-linejoin="miter" stroke-miterlimit="10" stroke-dasharray="" stroke-dashoffset="0" font-family="none" font-weight="none" font-size="none" text-anchor="none" style="mix-blend-mode: normal"><g transform="scale(5.33333,5.33333)"><path d="M18,6c-8.8,0 -16,6 -16,13.5c0,4.3 2.3,8 6,10.5l-2,6l6.3,-3.9c1.7,0.6 3.7,0.9 5.7,0.9c8.8,0 16,-6 16,-13.5c0,-7.5 -7.2,-13.5 -16,-13.5z" fill="#8bc34a"></path><path d="M20,29c0,-6.1 5.8,-11 13,-11c0.3,0 0.6,0 0.9,0c-0.1,-0.7 -0.3,-1.4 -0.5,-2c-0.1,0 -0.3,0 -0.4,0c-8.3,0 -15,5.8 -15,13c0,1.4 0.3,2.7 0.7,4c0.7,0 1.4,-0.1 2.1,-0.2c-0.5,-1.2 -0.8,-2.5 -0.8,-3.8z" fill="#7cb342"></path><path d="M46,29c0,-6.1 -5.8,-11 -13,-11c-7.2,0 -13,4.9 -13,11c0,6.1 5.8,11 13,11c1.8,0 3.5,-0.3 5,-0.8l5,2.8l-1.4,-4.8c2.7,-2 4.4,-4.9 4.4,-8.2z" fill="#cfd8dc"></path><path d="M14,15c0,1.1 -0.9,2 -2,2c-1.1,0 -2,-0.9 -2,-2c0,-1.1 0.9,-2 2,-2c1.1,0 2,0.9 2,2zM24,13c-1.1,0 -2,0.9 -2,2c0,1.1 0.9,2 2,2c1.1,0 2,-0.9 2,-2c0,-1.1 -0.9,-2 -2,-2z" fill="#33691e"></path><path d="M30,26.5c0,0.8 -0.7,1.5 -1.5,1.5c-0.8,0 -1.5,-0.7 -1.5,-1.5c0,-0.8 0.7,-1.5 1.5,-1.5c0.8,0 1.5,0.7 1.5,1.5zM37.5,25c-0.8,0 -1.5,0.7 -1.5,1.5c0,0.8 0.7,1.5 1.5,1.5c0.8,0 1.5,-0.7 1.5,-1.5c0,-0.8 -0.7,-1.5 -1.5,-1.5z" fill="#546e7a"></path></g></g></svg>